REM DIRINDEX 1\2,1\3,1\4,1\5
REM DIRNAME "folder01","folder02","folder03","folder04","folder05"
TITLE ""
FILE "1Q_t_1429-1438.mp3" MP3
  TRACK 01 AUDIO
    TITLE "0:"
    INDEX 01 00:00:00
  TRACK 02 AUDIO
    TITLE "2:cjc172_5266"
    INDEX 01 00:00:08
  TRACK 03 AUDIO
    TITLE "0:"
    INDEX 01 00:01:14
  TRACK 04 AUDIO
    TITLE "3:cjc172_5267"
    INDEX 01 00:01:59
  TRACK 05 AUDIO
    TITLE "0:"
    INDEX 01 00:02:56
  TRACK 06 AUDIO
    TITLE "4:cjc172_5268"
    INDEX 01 00:02:66
  TRACK 07 AUDIO
    TITLE "0:"
    INDEX 01 00:04:59
  TRACK 08 AUDIO
    TITLE "5:cjc172_5269"
    INDEX 01 00:04:65
  TRACK 09 AUDIO
    TITLE "0:"
    INDEX 01 00:11:65
  TRACK 10 AUDIO
    TITLE "3:cjc172_5270"
    INDEX 01 00:12:35
  TRACK 11 AUDIO
    TITLE "0:"
    INDEX 01 00:13:48
  TRACK 12 AUDIO
    TITLE "4:cjc172_5271"
    INDEX 01 00:13:56
  TRACK 13 AUDIO
    TITLE "0:"
    INDEX 01 00:16:01
  TRACK 14 AUDIO
    TITLE "5:cjc172_5272"
    INDEX 01 00:16:09
  TRACK 15 AUDIO
    TITLE "0:"
    INDEX 01 00:20:37
  TRACK 16 AUDIO
    TITLE "3:cjc172_5273"
    INDEX 01 00:21:05
  TRACK 17 AUDIO
    TITLE "0:"
    INDEX 01 00:22:12
  TRACK 18 AUDIO
    TITLE "4:cjc172_5274"
    INDEX 01 00:22:20
  TRACK 19 AUDIO
    TITLE "0:"
    INDEX 01 00:23:23
  TRACK 20 AUDIO
    TITLE "5:cjc172_5275"
    INDEX 01 00:23:29
  TRACK 21 AUDIO
    TITLE "0:"
    INDEX 01 00:27:25
  TRACK 22 AUDIO
    TITLE "3:cjc172_5276"
    INDEX 01 00:27:72
  TRACK 23 AUDIO
    TITLE "0:"
    INDEX 01 00:29:04
  TRACK 24 AUDIO
    TITLE "4:cjc172_5277"
    INDEX 01 00:29:12
  TRACK 25 AUDIO
    TITLE "0:"
    INDEX 01 00:32:46
  TRACK 26 AUDIO
    TITLE "5:cjc172_5278"
    INDEX 01 00:32:53
  TRACK 27 AUDIO
    TITLE "0:"
    INDEX 01 00:38:13
  TRACK 28 AUDIO
    TITLE "3:cjc172_5279"
    INDEX 01 00:38:62
  TRACK 29 AUDIO
    TITLE "0:"
    INDEX 01 00:39:55
  TRACK 30 AUDIO
    TITLE "4:cjc172_5280"
    INDEX 01 00:39:65
  TRACK 31 AUDIO
    TITLE "0:"
    INDEX 01 00:41:25
  TRACK 32 AUDIO
    TITLE "5:cjc172_5281"
    INDEX 01 00:41:33
  TRACK 33 AUDIO
    TITLE "0:"
    INDEX 01 00:45:23
  TRACK 34 AUDIO
    TITLE "3:cjc172_5282"
    INDEX 01 00:45:68
  TRACK 35 AUDIO
    TITLE "0:"
    INDEX 01 00:47:10
  TRACK 36 AUDIO
    TITLE "4:cjc172_5283"
    INDEX 01 00:47:18
  TRACK 37 AUDIO
    TITLE "0:"
    INDEX 01 00:49:07
  TRACK 38 AUDIO
    TITLE "5:cjc172_5284"
    INDEX 01 00:49:13
  TRACK 39 AUDIO
    TITLE "0:"
    INDEX 01 00:53:42
  TRACK 40 AUDIO
    TITLE "3:cjc172_5285"
    INDEX 01 00:54:10
  TRACK 41 AUDIO
    TITLE "0:"
    INDEX 01 00:55:35
  TRACK 42 AUDIO
    TITLE "4:cjc172_5286"
    INDEX 01 00:55:43
  TRACK 43 AUDIO
    TITLE "0:"
    INDEX 01 00:59:37
  TRACK 44 AUDIO
    TITLE "5:cjc172_5287"
    INDEX 01 00:59:40
  TRACK 45 AUDIO
    TITLE "0:"
    INDEX 01 01:05:04
  TRACK 46 AUDIO
    TITLE "3:cjc172_5288"
    INDEX 01 01:05:47
  TRACK 47 AUDIO
    TITLE "0:"
    INDEX 01 01:06:48
  TRACK 48 AUDIO
    TITLE "4:cjc172_5289"
    INDEX 01 01:06:58
  TRACK 49 AUDIO
    TITLE "0:"
    INDEX 01 01:09:10
  TRACK 50 AUDIO
    TITLE "5:cjc172_5290"
    INDEX 01 01:09:17
  TRACK 51 AUDIO
    TITLE "0:"
    INDEX 01 01:14:28
  TRACK 52 AUDIO
    TITLE "3:cjc172_5291"
    INDEX 01 01:14:73
  TRACK 53 AUDIO
    TITLE "0:"
    INDEX 01 01:16:17
  TRACK 54 AUDIO
    TITLE "4:cjc172_5292"
    INDEX 01 01:16:25
  TRACK 55 AUDIO
    TITLE "0:"
    INDEX 01 01:17:36
  TRACK 56 AUDIO
    TITLE "5:cjc172_5293"
    INDEX 01 01:17:42
  TRACK 57 AUDIO
    TITLE "0:"
    INDEX 01 01:21:42
  TRACK 58 AUDIO
    TITLE "3:cjc172_5294"
    INDEX 01 01:22:12
  TRACK 59 AUDIO
    TITLE "0:"
    INDEX 01 01:23:17
  TRACK 60 AUDIO
    TITLE "4:cjc172_5295"
    INDEX 01 01:23:25
  TRACK 61 AUDIO
    TITLE "0:"
    INDEX 01 01:26:14
  TRACK 62 AUDIO
    TITLE "5:cjc172_5296"
    INDEX 01 01:26:20
  TRACK 63 AUDIO
    TITLE "0:"
    INDEX 01 01:30:66
